<svg height="512" viewBox="0 0 64 64" width="512" xmlns="http://www.w3.org/2000/svg"><path d="m9 7h46v26h-46z" fill="#ffeb99"/><path d="m9 14v17a2 2 0 0 0 2 2h19c-11.607 0-21-8.5-21-19z" fill="#ffde55"/><path d="m35 39h16a4 4 0 0 0 4-4v-2h-28v6z" fill="#004fac"/><path d="m51 3h-38a4 4 0 0 0 -4 4h46a4 4 0 0 0 -4-4z" fill="#004fac"/><path d="m41 49h-10v12h30v-12z" fill="#57a4ff"/><path d="m27 45h10l-2-6h-8z" fill="#d1d3d4"/><path d="m43 47a2 2 0 0 0 -2-2h-14v4h14a2 2 0 0 0 2-2z" fill="#6d6e71"/><path d="m3 29h24v32h-24z" fill="#ffdaaa"/><path d="m19 33.5a1.5 1.5 0 0 0 -1.5-1.5h-5a1.5 1.5 0 0 0 0 3h5a1.5 1.5 0 0 0 1.5-1.5z" fill="#ff3051"/><path d="m15 43 4-2-4-2-4 2z" fill="#5eac24"/><path d="m11 51h4 4v-4h-8z" fill="#006df0"/><path d="m11 56.5a1.5 1.5 0 0 0 1.5 1.5h5a1.5 1.5 0 0 0 0-3h-5a1.5 1.5 0 0 0 -1.5 1.5z" fill="#ff3051"/><path d="m3 44v17h21c-11.607 0-21-6.5-21-17z" fill="#ffc477"/><path d="m18.445 14.832 3 2a1 1 0 1 0 1.11-1.664l-1.755-1.168 1.752-1.168a1 1 0 0 0 -1.11-1.664l-3 2a1 1 0 0 0 0 1.664z"/><path d="m29.168 16.555a1 1 0 0 0 1.387.277l3-2a1 1 0 0 0 0-1.664l-3-2a1 1 0 0 0 -1.11 1.664l1.755 1.168-1.752 1.168a1 1 0 0 0 -.28 1.387z"/><path d="m24.684 17.949a1 1 0 0 0 1.264-.633l2-6a1 1 0 1 0 -1.9-.632l-2 6a1 1 0 0 0 .636 1.265z"/><path d="m19 19h6v2h-6z"/><path d="m27 19h2v2h-2z"/><path d="m23 22h12v2h-12z"/><path d="m41 22h9v2h-9z"/><path d="m23 25h2v2h-2z"/><path d="m27 25h12v2h-12z"/><path d="m41 25h4v2h-4z"/><path d="m30 28h6v2h-6z"/><path d="m38 28h2v2h-2z"/><path d="m37 22h2v2h-2z"/><path d="m61 48h-17.184a2.966 2.966 0 0 0 .184-1 3 3 0 0 0 -3-3h-3.279l-1.334-4h14.613a5.006 5.006 0 0 0 5-5v-28a5.006 5.006 0 0 0 -5-5h-38a5.006 5.006 0 0 0 -5 5v21h-5a1 1 0 0 0 -1 1v32a1 1 0 0 0 1 1h24a1 1 0 0 0 1-1v-11h2v11a1 1 0 0 0 1 1h30a1 1 0 0 0 1-1v-12a1 1 0 0 0 -1-1zm-25.388-4h-7.612v-4h6.279zm15.388-6h-23v-4h26v1a3 3 0 0 1 -3 3zm-38-34h38a3 3 0 0 1 2.816 2h-43.632a3 3 0 0 1 2.816-2zm-3 4h44v24h-26v-3a1 1 0 0 0 -1-1h-11v-16a1 1 0 0 0 -2 0v16h-4zm16 52h-22v-30h22zm2-14h13a1 1 0 0 1 0 2h-13zm32 14h-28v-10h28z"/><path d="m36 51h2v2h-2z"/><path d="m39 51h2v2h-2z"/><path d="m42 51h2v2h-2z"/><path d="m45 51h2v2h-2z"/><path d="m48 51h2v2h-2z"/><path d="m51 51h2v2h-2z"/><path d="m54 51h2v2h-2z"/><path d="m36 54h2v2h-2z"/><path d="m39 54h2v2h-2z"/><path d="m42 54h2v2h-2z"/><path d="m45 54h2v2h-2z"/><path d="m48 54h2v2h-2z"/><path d="m51 54h2v2h-2z"/><path d="m54 54h2v2h-2z"/><path d="m36 57h2v2h-2z"/><path d="m39 57h14v2h-14z"/><path d="m54 57h2v2h-2z"/><path d="m57 51h2v2h-2z"/><path d="m57 54h2v2h-2z"/><path d="m57 57h2v2h-2z"/><path d="m33 51h2v2h-2z"/><path d="m33 54h2v2h-2z"/><path d="m33 57h2v2h-2z"/><path d="m17.5 36a2.5 2.5 0 0 0 0-5h-5a2.5 2.5 0 0 0 0 5h1.5v2.382l-3.447 1.718a1 1 0 0 0 0 1.79l3.447 1.728v2.382h-3a1 1 0 0 0 -1 1v4a1 1 0 0 0 1 1h3v2h-1.5a2.5 2.5 0 0 0 0 5h5a2.5 2.5 0 0 0 0-5h-1.5v-2h3a1 1 0 0 0 1-1v-4a1 1 0 0 0 -1-1h-3v-2.382l3.447-1.718a1 1 0 0 0 0-1.79l-3.447-1.728v-2.382zm.5 20.5a.5.5 0 0 1 -.5.5h-5a.5.5 0 0 1 0-1h5a.5.5 0 0 1 .5.5zm0-8.5v2h-6v-2zm-3-6.118-1.764-.882 1.764-.882 1.764.882zm-3-8.382a.5.5 0 0 1 .5-.5h5a.5.5 0 0 1 0 1h-5a.5.5 0 0 1 -.5-.5z"/></svg>